<?xml version="1.0" standalone="no"?>
<!DOCTYPE svg PUBLIC "-//W3C//DTD SVG 20010904//EN"
 "http://www.w3.org/TR/2001/REC-SVG-20010904/DTD/svg10.dtd">
<svg version="1.0" xmlns="http://www.w3.org/2000/svg"
 width="200.000000pt" height="200.000000pt" viewBox="0 0 200.000000 200.000000"
 preserveAspectRatio="xMidYMid meet">

<g transform="translate(0.000000,200.000000) scale(0.100000,-0.100000)"
fill="#000000" stroke="none">
<path d="M456 1799 l-26 -20 0 -365 0 -365 25 -24 c24 -25 24 -25 235 -25
l210 0 0 -75 0 -75 -41 0 c-33 0 -40 -3 -37 -17 3 -16 20 -18 188 -18 165 0
185 2 188 17 2 13 -5 17 -35 20 l-38 3 -3 73 -3 72 209 0 c197 0 211 1 236 21
l26 20 0 369 0 369 -26 20 c-26 21 -36 21 -554 21 -518 0 -528 0 -554 -21z
m1094 -38 c13 -26 14 -660 0 -695 l-10 -26 -532 2 -533 3 -3 355 c-1 195 0
361 3 367 3 10 118 13 534 13 514 0 531 -1 541 -19z m-462 -833 l-3 -73 -72
-3 -73 -3 0 76 0 75 75 0 76 0 -3 -72z"/>
<path d="M1077 1623 c-3 -5 -42 -100 -87 -212 -57 -143 -78 -207 -71 -214 7
-7 14 -7 20 -1 17 16 172 415 166 425 -7 11 -22 12 -28 2z"/>
<path d="M685 1490 c-66 -38 -120 -73 -120 -80 0 -13 239 -150 261 -150 39 0
3 35 -91 87 -58 32 -105 60 -105 63 0 3 47 31 105 63 96 54 132 88 88 86 -10
0 -72 -32 -138 -69z"/>
<path d="M1180 1546 c0 -8 47 -40 105 -72 58 -31 105 -60 105 -64 0 -4 -47
-33 -105 -64 -96 -53 -131 -87 -87 -85 26 0 257 134 257 149 0 15 -231 149
-257 149 -10 1 -18 -5 -18 -13z"/>
<path d="M460 410 l0 -220 30 0 30 0 0 95 0 95 95 0 c95 0 95 0 95 25 0 25 0
25 -95 25 l-96 0 3 73 3 72 108 3 c105 3 108 3 105 25 -3 21 -7 22 -140 25
l-138 3 0 -221z"/>
<path d="M800 410 l0 -222 103 4 c96 3 106 5 141 32 52 39 76 95 76 179 0 101
-34 168 -105 204 -18 10 -67 18 -122 21 l-93 5 0 -223z m200 141 c39 -27 60
-79 60 -144 0 -114 -45 -167 -141 -167 l-59 0 0 163 c0 90 3 167 8 171 12 13
105 -3 132 -23z"/>
<path d="M1207 623 c-4 -3 -7 -102 -7 -220 l0 -213 35 0 35 0 0 85 0 85 49 0
48 0 44 -82 c40 -75 47 -83 77 -86 17 -2 32 -1 32 2 0 4 -21 45 -46 92 l-47
86 31 24 c84 66 52 200 -55 225 -45 10 -187 12 -196 2z m208 -67 c20 -13 25
-25 25 -61 0 -56 -28 -77 -111 -83 l-59 -4 0 87 0 88 60 -6 c34 -3 72 -12 85
-21z"/>
</g>
</svg>
